<svg width="24" height="24" viewBox="0 0 24 24" fill="none" xmlns="http://www.w3.org/2000/svg">
<path d="M17.5 17C18.6934 17 19.838 16.5259 20.6819 15.682C21.5258 14.8381 22 13.6935 22 12.5C22 11.3065 21.5258 10.1619 20.6819 9.31804C19.838 8.47412 18.6934 8.00002 17.5 8.00002H15.7C15.3762 6.90804 14.7908 5.91157 13.9947 5.09706C13.1986 4.28255 12.2157 3.6746 11.1314 3.32597C10.0471 2.97735 8.89412 2.89857 7.77247 3.09647C6.65083 3.29437 5.59442 3.76298 4.6949 4.46164C3.79539 5.16029 3.07994 6.06788 2.61063 7.10567C2.14132 8.14345 1.93234 9.28008 2.0018 10.4169C2.07127 11.5538 2.41709 12.6565 3.00926 13.6294C3.60143 14.6023 4.42207 15.4161 5.39996 16" stroke="black" stroke-width="2" stroke-linecap="round" stroke-linejoin="round"/>
<path d="M12 12L9 17H14L11 22" stroke="black" stroke-width="2" stroke-linecap="round" stroke-linejoin="round"/>
</svg>
