<svg width="24" height="24" viewBox="0 0 24 24" fill="none" xmlns="http://www.w3.org/2000/svg">
<path d="M13.63 22C14.5019 22.0188 15.3458 21.6917 15.9772 21.0902C16.6087 20.4887 16.9764 19.6618 17 18.79C16.9896 18.3566 16.8939 17.9295 16.7184 17.5331C16.5429 17.1366 16.291 16.7787 15.9772 16.4797C15.6633 16.1806 15.2935 15.9464 14.8891 15.7903C14.4846 15.6342 14.0534 15.5593 13.62 15.57H12.28C11.9282 14.5186 11.2514 13.6062 10.3473 12.9645C9.4432 12.3229 8.35857 11.9851 7.25 12C5.89103 11.9678 4.57482 12.4762 3.59046 13.4137C2.6061 14.3512 2.03407 15.641 2 17C2 19.76 4.35 22 7.25 22H13.63V22Z" stroke="black" stroke-width="2" stroke-linecap="round" stroke-linejoin="round"/>
<path d="M9.94995 8.99995C10.1564 7.64627 10.8102 6.40072 11.8071 5.46189C12.8039 4.52306 14.0863 3.94502 15.45 3.81995C14.7725 4.73872 14.447 5.86997 14.5326 7.00827C14.6181 8.14658 15.1091 9.21646 15.9163 10.0236C16.7234 10.8308 17.7933 11.3218 18.9316 11.4073C20.0699 11.4929 21.2012 11.1674 22.12 10.4899C22.0371 11.3915 21.7556 12.2634 21.2957 13.0432C20.8358 13.823 20.2089 14.4913 19.46 14.9999" stroke="black" stroke-width="2" stroke-linecap="round" stroke-linejoin="round"/>
</svg>
