<svg width="24" height="24" viewBox="0 0 24 24" fill="none" xmlns="http://www.w3.org/2000/svg">
<path d="M20 16.2C20.7844 15.6572 21.3761 14.8791 21.6895 13.9781C22.0029 13.0771 22.0219 12.0998 21.7437 11.1873C21.4655 10.2748 20.9045 9.47432 20.1417 8.90143C19.379 8.32854 18.4539 8.01288 17.5 8.00002H15.7C15.3977 6.9803 14.867 6.04286 14.1482 5.25891C13.4295 4.47496 12.5415 3.8651 11.5518 3.47565C10.5621 3.08621 9.49663 2.92741 8.43636 3.01132C7.3761 3.09524 6.34889 3.41966 5.43275 3.95994C4.51662 4.50023 3.73564 5.24217 3.14914 6.12943C2.56264 7.01669 2.18603 8.02593 2.04792 9.08051C1.90981 10.1351 2.01382 11.2073 2.35206 12.2156C2.6903 13.224 3.25387 14.142 3.99998 14.9" stroke="black" stroke-width="2" stroke-linecap="round" stroke-linejoin="round"/>
<path d="M8 19V20" stroke="black" stroke-width="2" stroke-linecap="round" stroke-linejoin="round"/>
<path d="M8 14V15" stroke="black" stroke-width="2" stroke-linecap="round" stroke-linejoin="round"/>
<path d="M16 19V20" stroke="black" stroke-width="2" stroke-linecap="round" stroke-linejoin="round"/>
<path d="M16 14V15" stroke="black" stroke-width="2" stroke-linecap="round" stroke-linejoin="round"/>
<path d="M12 21V22" stroke="black" stroke-width="2" stroke-linecap="round" stroke-linejoin="round"/>
<path d="M12 16V17" stroke="black" stroke-width="2" stroke-linecap="round" stroke-linejoin="round"/>
</svg>
