<svg width="24" height="24" viewBox="0 0 24 24" fill="none" xmlns="http://www.w3.org/2000/svg">
<path d="M12 2V4" stroke="black" stroke-width="2" stroke-linecap="round" stroke-linejoin="round"/>
<path d="M5.21997 5.22L6.63997 6.64" stroke="black" stroke-width="2" stroke-linecap="round" stroke-linejoin="round"/>
<path d="M20 12H22" stroke="black" stroke-width="2" stroke-linecap="round" stroke-linejoin="round"/>
<path d="M15.97 12.5C16.0692 11.71 15.9304 10.9083 15.5713 10.1976C15.2122 9.48692 14.6492 8.89959 13.9543 8.5108C13.2594 8.12201 12.4643 7.94946 11.6708 8.01523C10.8772 8.081 10.1214 8.38211 9.5 8.88" stroke="black" stroke-width="2" stroke-linecap="round" stroke-linejoin="round"/>
<path d="M13.63 22C14.5019 22.0188 15.3458 21.6918 15.9772 21.0903C16.6087 20.4888 16.9764 19.6618 17 18.79C16.9896 18.3566 16.8939 17.9295 16.7184 17.5331C16.5429 17.1367 16.291 16.7787 15.9772 16.4797C15.6633 16.1807 15.2935 15.9464 14.8891 15.7903C14.4846 15.6342 14.0534 15.5594 13.62 15.57H12.28C11.9282 14.5186 11.2514 13.6062 10.3473 12.9646C9.4432 12.3229 8.35857 11.9851 7.25 12C5.89103 11.9678 4.57482 12.4763 3.59046 13.4137C2.6061 14.3512 2.03407 15.6411 2 17C2 19.76 4.35 22 7.25 22H13.63V22Z" stroke="black" stroke-width="2" stroke-linecap="round" stroke-linejoin="round"/>
<path d="M17.36 6.64L18.78 5.22" stroke="black" stroke-width="2" stroke-linecap="round" stroke-linejoin="round"/>
</svg>
