<svg width="24" height="22" viewBox="0 0 24 22" fill="none" xmlns="http://www.w3.org/2000/svg">
<path d="M20.0001 14.85C20.7846 14.3524 21.3762 13.6391 21.6896 12.8132C22.0031 11.9873 22.022 11.0915 21.7438 10.255C21.4656 9.41855 20.9047 8.68478 20.1419 8.15963C19.3791 7.63448 18.454 7.34512 17.5001 7.33333H15.7001C15.3978 6.39858 14.8671 5.53927 14.1484 4.82065C13.4296 4.10202 12.5416 3.54299 11.5519 3.18599C10.5622 2.829 9.49676 2.68344 8.43649 2.76036C7.37622 2.83728 6.34901 3.13467 5.43288 3.62993C4.51674 4.12519 3.73577 4.8053 3.14926 5.61862C2.56276 6.43194 2.18615 7.35708 2.04804 8.32378C1.90993 9.29047 2.01394 10.2733 2.35218 11.1976C2.69042 12.122 3.25399 12.9635 4.0001 13.6583" stroke="black" stroke-width="2" stroke-linecap="round" stroke-linejoin="round"/>
<path d="M9.19995 20.1667L12.2 13.75" stroke="black" stroke-width="2" stroke-linecap="round" stroke-linejoin="round"/>
<path d="M9 11.9167L6 18.3333" stroke="black" stroke-width="2" stroke-linecap="round" stroke-linejoin="round"/>
<path d="M17 11.9167L14 18.3333" stroke="black" stroke-width="2" stroke-linecap="round" stroke-linejoin="round"/>
</svg>
