<svg width="24" height="24" viewBox="0 0 24 24" fill="none" xmlns="http://www.w3.org/2000/svg">
<path d="M20.0001 16.2C20.7846 15.6572 21.3762 14.8791 21.6896 13.9781C22.0031 13.0771 22.022 12.0998 21.7438 11.1873C21.4656 10.2748 20.9047 9.47431 20.1419 8.90142C19.3791 8.32853 18.454 8.01286 17.5001 8H15.7001C15.3978 6.98028 14.8671 6.04285 14.1484 5.25889C13.4296 4.47494 12.5416 3.86508 11.5519 3.47564C10.5622 3.08619 9.49676 2.92739 8.43649 3.01131C7.37622 3.09522 6.34901 3.41964 5.43288 3.95993C4.51674 4.50021 3.73577 5.24216 3.14926 6.12941C2.56276 7.01667 2.18615 8.02591 2.04804 9.08049C1.90993 10.1351 2.01394 11.2073 2.35218 12.2156C2.69042 13.224 3.25399 14.142 4.0001 14.9" stroke="black" stroke-width="2" stroke-linecap="round" stroke-linejoin="round"/>
<path d="M8 19V20" stroke="black" stroke-width="2" stroke-linecap="round" stroke-linejoin="round"/>
<path d="M8 14V15" stroke="black" stroke-width="2" stroke-linecap="round" stroke-linejoin="round"/>
<path d="M16 19V20" stroke="black" stroke-width="2" stroke-linecap="round" stroke-linejoin="round"/>
<path d="M16 14V15" stroke="black" stroke-width="2" stroke-linecap="round" stroke-linejoin="round"/>
<path d="M12 21V22" stroke="black" stroke-width="2" stroke-linecap="round" stroke-linejoin="round"/>
<path d="M12 16V17" stroke="black" stroke-width="2" stroke-linecap="round" stroke-linejoin="round"/>
</svg>
