<?xml version="1.0" encoding="utf-8"?>
<!-- Generator: Adobe Illustrator 24.3.0, SVG Export Plug-In . SVG Version: 6.00 Build 0)  -->
<svg version="1.1" id="Layer_2" xmlns="http://www.w3.org/2000/svg" xmlns:xlink="http://www.w3.org/1999/xlink" x="0px" y="0px"
	 viewBox="0 0 293 240" style="enable-background:new 0 0 293 240;" xml:space="preserve">
<style type="text/css">
	.st0{fill:url(#SVGID_1_);}
	.st1{fill:url(#SVGID_2_);}
	.st2{fill:url(#SVGID_3_);}
	.st3{fill:url(#SVGID_4_);}
	.st4{fill:url(#SVGID_5_);}
	.st5{fill:url(#SVGID_6_);}
	.st6{fill:url(#SVGID_7_);}
	.st7{fill:url(#SVGID_8_);}
	.st8{fill:url(#SVGID_9_);}
	.st9{fill:url(#SVGID_10_);}
</style>
<g id="Layer_1">
	<g>
		<g>
			<linearGradient id="SVGID_1_" gradientUnits="userSpaceOnUse" x1="232.6221" y1="-32.5547" x2="110.8277" y2="224.492">
				<stop  offset="0" style="stop-color:#FFFE5D"/>
				<stop  offset="1" style="stop-color:#F423A9"/>
			</linearGradient>
			<path class="st0" d="M27.65,164.75c1.87,4.64,4.01,9.13,6.42,13.47h209.89c2.41-4.33,4.56-8.83,6.42-13.47H27.65z"/>
			<linearGradient id="SVGID_2_" gradientUnits="userSpaceOnUse" x1="248.4629" y1="-25.049" x2="126.6685" y2="231.9977">
				<stop  offset="0" style="stop-color:#FFFE5D"/>
				<stop  offset="1" style="stop-color:#F423A9"/>
			</linearGradient>
			<path class="st1" d="M206.25,219.41c5.9-4,11.42-8.51,16.5-13.47H55.28c5.09,4.96,10.6,9.47,16.5,13.47H206.25z"/>
			<linearGradient id="SVGID_3_" gradientUnits="userSpaceOnUse" x1="240.494" y1="-28.8248" x2="118.6997" y2="228.2219">
				<stop  offset="0" style="stop-color:#FFFE5D"/>
				<stop  offset="1" style="stop-color:#F423A9"/>
			</linearGradient>
			<path class="st2" d="M38.36,185.35c3.08,4.73,6.47,9.23,10.17,13.47H229.5c3.69-4.24,7.09-8.74,10.17-13.47H38.36z"/>
			<linearGradient id="SVGID_4_" gradientUnits="userSpaceOnUse" x1="256.4318" y1="-21.2732" x2="134.6211" y2="235.8078">
				<stop  offset="0" style="stop-color:#FFFE5D"/>
				<stop  offset="1" style="stop-color:#F423A9"/>
			</linearGradient>
			<path class="st3" d="M83.75,226.53c16.54,8.6,35.34,13.47,55.27,13.47s38.73-4.87,55.27-13.47H83.75z"/>
			<linearGradient id="SVGID_5_" gradientUnits="userSpaceOnUse" x1="209.2625" y1="-43.623" x2="87.4681" y2="213.4237">
				<stop  offset="0" style="stop-color:#FFFE5D"/>
				<stop  offset="1" style="stop-color:#F423A9"/>
			</linearGradient>
			<path class="st4" d="M258.96,116.44C257.07,51.81,204.1,0,139.01,0S20.96,51.81,19.07,116.44H258.96z"/>
			<linearGradient id="SVGID_6_" gradientUnits="userSpaceOnUse" x1="218.7225" y1="-39.1407" x2="96.9281" y2="217.9061">
				<stop  offset="0" style="stop-color:#FFFE5D"/>
				<stop  offset="1" style="stop-color:#F423A9"/>
			</linearGradient>
			<path class="st5" d="M19.07,123.56c0.13,4.56,0.52,9.05,1.15,13.47h237.58c0.63-4.42,1.02-8.91,1.15-13.47H19.07z"/>
			<linearGradient id="SVGID_7_" gradientUnits="userSpaceOnUse" x1="225.695" y1="-35.8369" x2="103.9006" y2="221.2098">
				<stop  offset="0" style="stop-color:#FFFE5D"/>
				<stop  offset="1" style="stop-color:#F423A9"/>
			</linearGradient>
			<path class="st6" d="M21.45,144.16c0.94,4.59,2.15,9.08,3.59,13.47h227.95c1.45-4.38,2.65-8.87,3.59-13.47H21.45z"/>
		</g>
		<linearGradient id="SVGID_8_" gradientUnits="userSpaceOnUse" x1="300.3628" y1="38.6999" x2="145.5965" y2="286.326">
			<stop  offset="0" style="stop-color:#CCE0F4"/>
			<stop  offset="0.0641" style="stop-color:#C3DCF2"/>
			<stop  offset="0.1706" style="stop-color:#A9D2EE"/>
			<stop  offset="0.3066" style="stop-color:#80C2E7"/>
			<stop  offset="0.4649" style="stop-color:#47ACDE"/>
			<stop  offset="0.5674" style="stop-color:#1E9CD7"/>
			<stop  offset="0.8652" style="stop-color:#0075BE"/>
			<stop  offset="0.9944" style="stop-color:#005B97"/>
		</linearGradient>
		<path class="st7" d="M121.64,213.47c-17.88,10.64-34.62-8.59-50.25,4.55c-6.98,5.87-10.24,15.26-11.9,21.98H293
			c-0.84-40.96-14.45-72.27-32.89-78.03c-3.72-1.16-9.08-1.74-16.09,0.93c-5.77,2.2-18.22,8.12-27.26,23.55
			c-2.88,4.92-4.82,9.79-6.15,14.03c0.04,0.02,0.06,0.02,0.07,0.01c0.24-0.34-39.13-40-62.64-27.43
			C132.86,181.18,138.39,203.5,121.64,213.47z"/>
		
			<linearGradient id="SVGID_9_" gradientUnits="userSpaceOnUse" x1="-252.4023" y1="13.0922" x2="-329.1799" y2="135.9365" gradientTransform="matrix(-1 0 0 1 -248.6192 0)">
			<stop  offset="0" style="stop-color:#CCE0F4"/>
			<stop  offset="0.0641" style="stop-color:#C3DCF2"/>
			<stop  offset="0.1706" style="stop-color:#A9D2EE"/>
			<stop  offset="0.3066" style="stop-color:#80C2E7"/>
			<stop  offset="0.4649" style="stop-color:#47ACDE"/>
			<stop  offset="0.5674" style="stop-color:#1E9CD7"/>
			<stop  offset="0.8652" style="stop-color:#0075BE"/>
			<stop  offset="0.9944" style="stop-color:#005B97"/>
		</linearGradient>
		<path class="st8" d="M93.93,99.25c9.8,4.31,18.98-3.48,27.54,1.84c3.83,2.38,5.62,6.18,6.52,8.9H0
			c0.46-16.59,7.92-29.27,18.03-31.61c2.04-0.47,4.98-0.7,8.82,0.38c3.16,0.89,9.99,3.29,14.94,9.54c1.58,1.99,2.64,3.96,3.37,5.68
			C45.14,94,45.13,94,45.13,94C45,93.86,66.58,77.8,79.46,82.89C87.79,86.18,84.75,95.22,93.93,99.25z"/>
		<linearGradient id="SVGID_10_" gradientUnits="userSpaceOnUse" x1="273.1514" y1="48.964" x2="199.7993" y2="166.3273">
			<stop  offset="0" style="stop-color:#CCE0F4"/>
			<stop  offset="0.0641" style="stop-color:#C3DCF2"/>
			<stop  offset="0.1706" style="stop-color:#A9D2EE"/>
			<stop  offset="0.3066" style="stop-color:#80C2E7"/>
			<stop  offset="0.4649" style="stop-color:#47ACDE"/>
			<stop  offset="0.5674" style="stop-color:#1E9CD7"/>
			<stop  offset="0.8652" style="stop-color:#0075BE"/>
			<stop  offset="0.9944" style="stop-color:#005B97"/>
		</linearGradient>
		<path class="st9" d="M152,140l130-1.8c0,0-0.82-14.22-11.33-20.86c-1.47-0.93-7.24-4.34-22.82-1.91
			c-24.46,3.83-26.93,14.86-42.19,13.61c-9.42-0.77-10.3-5.13-27.3-7.62C166.28,119.66,162.19,121.2,152,140z"/>
	</g>
</g>
</svg>
