<svg width="24" height="24" viewBox="0 0 24 24" fill="none" xmlns="http://www.w3.org/2000/svg">
<path d="M20.0001 16.2C20.7846 15.6572 21.3762 14.8791 21.6896 13.9781C22.0031 13.0771 22.022 12.0998 21.7438 11.1873C21.4656 10.2748 20.9047 9.47429 20.1419 8.9014C19.3791 8.32851 18.454 8.01285 17.5001 7.99999H15.7001C15.3978 6.98027 14.8671 6.04283 14.1484 5.25888C13.4296 4.47493 12.5416 3.86507 11.5519 3.47562C10.5622 3.08617 9.49676 2.92738 8.43649 3.01129C7.37622 3.09521 6.34901 3.41963 5.43288 3.95991C4.51674 4.5002 3.73577 5.24214 3.14926 6.1294C2.56276 7.01666 2.18615 8.0259 2.04804 9.08048C1.90993 10.1351 2.01394 11.2072 2.35218 12.2156C2.69042 13.224 3.25399 14.142 4.0001 14.9" stroke="black" stroke-width="2" stroke-linecap="round" stroke-linejoin="round"/>
<path d="M16 14V20" stroke="black" stroke-width="2" stroke-linecap="round" stroke-linejoin="round"/>
<path d="M8 14V20" stroke="black" stroke-width="2" stroke-linecap="round" stroke-linejoin="round"/>
<path d="M12 16V22" stroke="black" stroke-width="2" stroke-linecap="round" stroke-linejoin="round"/>
</svg>
