<svg width="24" height="24" viewBox="0 0 24 24" fill="none" xmlns="http://www.w3.org/2000/svg">
<path d="M12 8.99997C11.1077 8.98559 10.2363 9.27001 9.52424 9.80797C8.81222 10.3459 8.30055 11.1065 8.07061 11.9688C7.84067 12.8311 7.90568 13.7455 8.25529 14.5665C8.6049 15.3876 9.21903 16.0682 10 16.5" stroke="black" stroke-width="2" stroke-linecap="round" stroke-linejoin="round"/>
<path d="M12 3V5" stroke="black" stroke-width="2" stroke-linecap="round" stroke-linejoin="round"/>
<path d="M6.59995 18.4L5.19995 19.8" stroke="black" stroke-width="2" stroke-linecap="round" stroke-linejoin="round"/>
<path d="M18 2C18.5304 2 19.0391 2.21071 19.4142 2.58579C19.7893 2.96086 20 3.46957 20 4V14.5C20.7626 14.9403 21.3586 15.6199 21.6955 16.4334C22.0325 17.2469 22.0916 18.1488 21.8637 18.9994C21.6358 19.8499 21.1336 20.6015 20.435 21.1375C19.7365 21.6736 18.8805 21.9641 18 21.9641C17.1195 21.9641 16.2635 21.6736 15.565 21.1375C14.8664 20.6015 14.3642 19.8499 14.1363 18.9994C13.9084 18.1488 13.9675 17.2469 14.3045 16.4334C14.6415 15.6199 15.2374 14.9403 16 14.5V4C16 2.9 16.9 2 18 2Z" stroke="black" stroke-width="2" stroke-linecap="round" stroke-linejoin="round"/>
<path d="M4 13H2" stroke="black" stroke-width="2" stroke-linecap="round" stroke-linejoin="round"/>
<path d="M6.59995 7.60001L5.19995 6.20001" stroke="black" stroke-width="2" stroke-linecap="round" stroke-linejoin="round"/>
</svg>
