<svg width="24" height="24" viewBox="0 0 24 24" fill="none" xmlns="http://www.w3.org/2000/svg">
<path d="M20 16.2C20.7844 15.6572 21.3761 14.8791 21.6895 13.9781C22.0029 13.0771 22.0219 12.0998 21.7437 11.1873C21.4655 10.2748 20.9045 9.47429 20.1417 8.9014C19.379 8.32851 18.4539 8.01285 17.5 7.99999H15.7C15.3977 6.98027 14.867 6.04283 14.1482 5.25888C13.4295 4.47493 12.5415 3.86507 11.5518 3.47562C10.5621 3.08617 9.49663 2.92738 8.43636 3.01129C7.3761 3.09521 6.34889 3.41963 5.43275 3.95991C4.51662 4.5002 3.73564 5.24214 3.14914 6.1294C2.56264 7.01666 2.18603 8.0259 2.04792 9.08048C1.90981 10.1351 2.01382 11.2072 2.35206 12.2156C2.6903 13.224 3.25387 14.142 3.99998 14.9" stroke="black" stroke-width="2" stroke-linecap="round" stroke-linejoin="round"/>
<path d="M16 14V20" stroke="black" stroke-width="2" stroke-linecap="round" stroke-linejoin="round"/>
<path d="M8 14V20" stroke="black" stroke-width="2" stroke-linecap="round" stroke-linejoin="round"/>
<path d="M12 16V22" stroke="black" stroke-width="2" stroke-linecap="round" stroke-linejoin="round"/>
</svg>
